<?xml version="1.0" encoding="UTF-8"?>
<svg id="Layer_1" xmlns="http://www.w3.org/2000/svg" version="1.1" viewBox="0 0 71.99 18.53">
  <!-- Generator: Adobe Illustrator 30.5.1, SVG Export Plug-In . SVG Version: 2.1.4 Build 3)  -->
  <defs>
    <style>
      .st0 {
        fill: #1d1d1b;
      }

      .st1 {
        fill: #54a674;
      }
    </style>
  </defs>
  <g>
    <path class="st0" d="M5.46,18.2V3.25H0V0h14.46v3.25h-5.43v14.95h-3.57Z"/>
    <path class="st0" d="M17.24,18.51c-1.56,0-2.77-.35-3.63-1.04-.86-.69-1.29-1.67-1.29-2.94,0-1.39.46-2.43,1.39-3.13s2.23-1.05,3.91-1.05h3.3v2.55h-2.11c-1.13,0-1.91.13-2.34.4-.43.27-.65.65-.65,1.13,0,.38.17.68.52.9.35.22.83.33,1.46.33.57,0,1.08-.13,1.52-.4.44-.27.79-.61,1.05-1.04.26-.42.39-.86.39-1.31h.83c0,1.77-.33,3.15-1,4.13-.67.99-1.79,1.48-3.37,1.48h.02ZM20.88,18.2l-.1-2.63v-3.95c0-.78-.08-1.45-.25-2s-.42-.98-.78-1.29c-.36-.3-.84-.45-1.44-.45-.55,0-1.06.12-1.51.36s-.83.62-1.14,1.12l-3.02-1.04c.24-.55.6-1.1,1.07-1.62.47-.53,1.08-.96,1.83-1.3s1.68-.51,2.77-.51c1.32,0,2.41.25,3.29.75.88.5,1.53,1.21,1.95,2.12s.63,1.99.61,3.24l-.08,7.2h-3.2Z"/>
    <path class="st0" d="M31.23,18.51c-.83,0-1.61-.13-2.34-.38s-1.37-.62-1.92-1.09c-.56-.48-.99-1.06-1.3-1.75l2.94-1.35c.26.42.62.78,1.07,1.08.45.3.97.46,1.56.46s1.01-.08,1.33-.25c.31-.16.47-.4.47-.71s-.13-.54-.38-.69-.59-.27-1.03-.38l-1.2-.31c-1.25-.33-2.23-.85-2.95-1.57-.72-.72-1.08-1.55-1.08-2.48,0-1.33.43-2.37,1.29-3.09s2.08-1.09,3.65-1.09c.81,0,1.57.12,2.27.36.7.24,1.3.58,1.81,1.01.5.43.85.94,1.04,1.51l-2.83,1.3c-.12-.35-.42-.63-.88-.85-.47-.22-.94-.32-1.4-.32s-.83.1-1.08.3-.38.47-.38.82c0,.23.12.41.36.56.24.15.59.27,1.04.38l1.69.42c.85.21,1.53.54,2.04,1,.51.46.88.97,1.12,1.53.23.56.35,1.11.35,1.65,0,.78-.23,1.47-.69,2.07s-1.08,1.06-1.87,1.39c-.79.33-1.69.49-2.69.49v-.02Z"/>
    <path class="st0" d="M37.96,18.2V0h3.43v18.2h-3.43ZM41.24,14.9l-2.05-2.37,6.66-7.33h4.08l-8.68,9.7h0ZM46.28,18.2l-4.32-6.29,2.24-2.37,6.11,8.66h-4.03Z"/>
    <path class="st0" d="M54.96,18.51c-1.56,0-2.77-.35-3.63-1.04-.86-.69-1.29-1.67-1.29-2.94,0-1.39.46-2.43,1.39-3.13s2.23-1.05,3.91-1.05h3.3v2.55h-2.11c-1.13,0-1.91.13-2.34.4-.43.27-.65.65-.65,1.13,0,.38.17.68.52.9.35.22.83.33,1.46.33.57,0,1.08-.13,1.52-.4.44-.27.79-.61,1.05-1.04.26-.42.39-.86.39-1.31h.83c0,1.77-.33,3.15-1,4.13-.67.99-1.79,1.48-3.37,1.48h.02ZM58.6,18.2l-.1-2.63v-3.95c0-.78-.08-1.45-.25-2s-.42-.98-.78-1.29c-.36-.3-.84-.45-1.44-.45-.55,0-1.06.12-1.51.36-.45.24-.83.62-1.14,1.12l-3.02-1.04c.24-.55.6-1.1,1.07-1.62.47-.53,1.08-.96,1.83-1.3s1.68-.51,2.77-.51c1.32,0,2.41.25,3.29.75s1.53,1.21,1.95,2.12c.42.91.63,1.99.61,3.24l-.08,7.2h-3.2Z"/>
  </g>
  <circle class="st1" cx="68.59" cy="11.72" r="3.4"/>
</svg>