<?xml version="1.0" encoding="UTF-8"?>
<svg id="Layer_2" data-name="Layer 2" xmlns="http://www.w3.org/2000/svg" viewBox="0 0 147.72 37.02">
  <defs>
    <style>
      .cls-1 {
        fill: #4ed58a;
      }
    </style>
  </defs>
  <g id="Layer_1-2" data-name="Layer 1">
    <polygon points="28.91 0 0 0 0 6.5 10.92 6.5 10.92 36.4 18.04 36.4 18.04 6.5 28.91 6.5 28.91 0"/>
    <path d="M44.23,11.28c-1.75-1-3.94-1.51-6.58-1.51-2.18,0-4.03.34-5.54,1.01-1.51.68-2.73,1.54-3.67,2.6-.94,1.06-1.65,2.14-2.13,3.25l6.03,2.08c.62-1.01,1.39-1.75,2.29-2.24.9-.49,1.91-.73,3.02-.73,1.21,0,2.17.3,2.89.91.71.61,1.23,1.46,1.56,2.57.13.45.23.94.31,1.46h-6.11c-3.36,0-5.97.7-7.83,2.11-1.85,1.4-2.78,3.49-2.78,6.27,0,2.53.86,4.49,2.57,5.88,1.72,1.39,4.13,2.08,7.25,2.08s5.4-.99,6.73-2.96c.15-.22.29-.46.43-.71l.12,3.05h6.4l.16-14.4c.03-2.5-.37-4.65-1.22-6.47s-2.15-3.23-3.9-4.24ZM41.81,28.42c-.52.85-1.22,1.54-2.11,2.08-.88.54-1.9.81-3.04.81-1.25,0-2.22-.22-2.91-.65-.69-.43-1.04-1.03-1.04-1.79,0-.97.43-1.72,1.3-2.26.87-.54,2.43-.81,4.68-.81h3.9c0,.9-.26,1.78-.78,2.63Z"/>
    <path d="M71.06,22.75c-1.02-.92-2.38-1.59-4.08-2l-3.38-.83c-.9-.21-1.59-.46-2.08-.75-.49-.29-.73-.67-.73-1.12,0-.69.25-1.24.75-1.64.5-.4,1.22-.6,2.16-.6s1.87.22,2.81.65c.94.43,1.52,1,1.77,1.69l5.67-2.6c-.38-1.14-1.08-2.15-2.08-3.02-1.01-.87-2.21-1.54-3.61-2.03-1.4-.48-2.92-.73-4.55-.73-3.15,0-5.59.73-7.31,2.18s-2.57,3.52-2.57,6.19c0,1.87.72,3.53,2.16,4.97,1.44,1.44,3.41,2.49,5.9,3.15l2.39.62c.87.21,1.55.46,2.05.75.5.29.75.75.75,1.38s-.31,1.1-.94,1.43c-.62.33-1.51.49-2.65.49s-2.22-.3-3.12-.91c-.9-.61-1.61-1.33-2.13-2.16l-5.88,2.7c.62,1.39,1.49,2.56,2.6,3.51,1.11.95,2.39,1.68,3.85,2.18s3.02.75,4.68.75c2.01,0,3.8-.33,5.38-.99s2.83-1.59,3.74-2.78c.92-1.2,1.38-2.57,1.38-4.13,0-1.07-.23-2.17-.7-3.3-.47-1.13-1.21-2.15-2.24-3.07Z"/>
    <polygon points="100.88 10.4 92.71 10.4 83.82 20.2 83.82 0 76.96 0 76.96 36.4 83.82 36.4 83.82 29.45 86.66 26.28 93.6 36.4 101.66 36.4 91.05 21.37 100.88 10.4"/>
    <path d="M119.68,11.28c-1.75-1-3.94-1.51-6.58-1.51-2.18,0-4.03.34-5.54,1.01-1.51.68-2.73,1.54-3.67,2.6-.94,1.06-1.65,2.14-2.13,3.25l6.03,2.08c.62-1.01,1.39-1.75,2.29-2.24.9-.49,1.91-.73,3.02-.73,1.21,0,2.17.3,2.89.91.71.61,1.23,1.46,1.56,2.57.13.45.23.94.31,1.46h-6.11c-3.36,0-5.97.7-7.83,2.11-1.85,1.4-2.78,3.49-2.78,6.27,0,2.53.86,4.49,2.57,5.88,1.72,1.39,4.13,2.08,7.25,2.08s5.4-.99,6.73-2.96c.15-.22.29-.46.43-.71l.12,3.05h6.4l.16-14.4c.03-2.5-.37-4.65-1.22-6.47s-2.15-3.23-3.9-4.24ZM117.26,28.42c-.52.85-1.22,1.54-2.11,2.08-.88.54-1.9.81-3.04.81-1.25,0-2.22-.22-2.91-.65-.69-.43-1.04-1.03-1.04-1.79,0-.97.43-1.72,1.3-2.26.87-.54,2.43-.81,4.68-.81h3.9c0,.9-.26,1.78-.78,2.63Z"/>
    <path class="cls-1" d="M145.47,23.91c-2.99-2.99-7.84-2.99-10.83,0-2.99,2.99-2.99,7.84,0,10.83s7.84,2.99,10.83,0c2.99-2.99,2.99-7.84,0-10.83Z"/>
  </g>
</svg>
